# xmcd
#
# Track frame offsets:
#	150
#	11632
#	24680
#	37377
#	50040
#	55485
#	70230
#	82082
#	96215
#	104872
#	116350
#	133740
#
# Disc length: 1918 seconds
#
# Revision: 1
# Processed by: cddbd v1.5.1PL0 Copyright (c) Steve Scherf et al.
# Submitted via: CDex 1.50Beta5
#
DISCID=b7077c0c
DTITLE=山下達郎 - ADD SOME MUSIC TO YOUR DAY
DYEAR=1900
DGENRE=
TTITLE0=Wendy
TTITLE1=Don't Worry Baby
TTITLE2=Help Me Rhonda
TTITLE3=Car Crazy Cutie
TTITLE4=And Your Dreams Come True
TTITLE5=Your Summer Dream
TTITLE6=Semi-Detached, Suburban Mr. James
TTITLE7=Sincearly
TTITLE8=Why Do Fools Fall In Love
TTITLE9=Crazy Word's. Crazy Tune
TTITLE10=Love's Made A Fool Of You
TTITLE11=Devoted To You
EXTD=
EXTT0=
EXTT1=
EXTT2=
EXTT3=
EXTT4=
EXTT5=
EXTT6=
EXTT7=
EXTT8=
EXTT9=
EXTT10=
EXTT11=
PLAYORDER=
